<?xml version="1.0" encoding="utf-8"?>
<!-- Generator: Adobe Illustrator 26.3.1, SVG Export Plug-In . SVG Version: 6.00 Build 0)  -->
<svg version="1.1" xmlns="http://www.w3.org/2000/svg" xmlns:xlink="http://www.w3.org/1999/xlink" x="0px" y="0px"
	 viewBox="0 0 204.1 202.7" style="enable-background:new 0 0 204.1 202.7;" xml:space="preserve">
<style type="text/css">
	.st0{fill:none;}
	.st1{fill:#FFFFFF;}
	.st2{fill:#004680;}
</style>
<g id="Bounding_Box">
	<rect class="st0" width="204.1" height="202.7"/>
</g>
<g id="Logo_Siegel">
	<circle class="st1" cx="102" cy="101.3" r="68"/>
	<g>
		<g>
			<g>
				<path class="st2" d="M57.6,136.7c0.5-0.4,0.6-1.2,0.2-1.7c-0.4-0.5-1.2-0.6-1.7-0.2c-0.5,0.4-0.6,1.1-0.2,1.7
					C56.4,137,57.1,137.1,57.6,136.7L57.6,136.7L57.6,136.7z"/>
				<polygon class="st2" points="65.9,147.7 65.4,147.3 64.7,148.2 61.3,145.4 69.3,143.3 69.5,143.1 65,139.3 65.2,139 64.7,138.6 
					63.5,140.1 64,140.4 64.6,139.8 67.7,142.4 59.8,144.5 59.6,144.8 64.7,149.1 65.9,147.7 				"/>
				<path class="st2" d="M80.1,149.5l-2.9-1.6l-0.3,0.6l1.1,0.6l-2,3.6c-0.7,1.2-1.9,1.6-3,1c-1.1-0.6-1.3-1.8-0.7-3l2-3.6l1.1,0.6
					l0.3-0.6l-3.3-1.8l-0.3,0.6l1.1,0.6l-2.2,4c-0.8,1.4-0.2,3,1.4,3.9c1.7,0.9,3.4,0.5,4.3-1.1l2-3.7l1.1,0.6L80.1,149.5
					L80.1,149.5z"/>
				<path class="st2" d="M88,160c1.5,0.4,2.6-0.1,2.9-1.3c0.3-1.2-0.4-2.2-1.9-2.6c1.2,0.3,2.2-0.2,2.4-1.2c0.3-1.1-0.4-2.1-1.8-2.4
					l-3.9-1l-0.2,0.6l1.2,0.3l-1.6,6.3l-1.2-0.3l-0.1,0.6L88,160L88,160L88,160z M87.2,156.1l1.2,0.3c1.1,0.3,1.5,0.9,1.2,1.9
					c-0.2,0.9-0.9,1.2-2,1l-1.1-0.3L87.2,156.1L87.2,156.1z M88,152.8l1.1,0.3c0.8,0.2,1.1,0.8,0.9,1.6c-0.2,0.8-0.9,1.2-1.7,1
					l-1-0.3L88,152.8L88,152.8z"/>
				<polygon class="st2" points="102.4,160 101.8,160 101.8,160.9 99,160.8 99.1,157.9 101.2,158 101.1,158.8 101.8,158.8 
					101.8,156.5 101.2,156.5 101.2,157.3 99.1,157.2 99.2,154.5 101.9,154.5 101.9,155.4 102.5,155.4 102.5,153.6 101.9,153.5 
					101.9,153.9 96.7,153.7 96.7,154.3 97.9,154.4 97.7,160.8 96.4,160.8 96.4,161.4 102.4,161.6 102.4,160 				"/>
				<path class="st2" d="M115.8,159.4l-0.5,0.1c-0.4,0.1-0.7-0.1-1-0.5l-1.9-2c1.1-0.4,1.6-1.3,1.4-2.4c-0.2-1.3-1.2-1.9-2.8-1.6
					l-3.9,0.6l0.1,0.7l1.2-0.2l1,6.3l-1.2,0.2l0.1,0.6l3.7-0.6L112,160l-1.2,0.2l-0.4-2.7l0.8-0.1l2.2,2.4c0.5,0.6,0.7,0.6,1.4,0.5
					l1.2-0.2L115.8,159.4L115.8,159.4z M109.8,153.9l1.1-0.2c0.9-0.1,1.4,0.3,1.5,1.2c0.1,0.9-0.3,1.6-1.1,1.7l-1.2,0.2L109.8,153.9
					L109.8,153.9z"/>
				<polygon class="st2" points="125.9,154.7 125.3,154.9 125.7,155.8 123.1,156.8 120.8,150.9 122,150.5 121.7,149.9 118.2,151.2 
					118.5,151.8 119.6,151.4 121.9,157.3 120.8,157.8 121,158.4 126.5,156.3 125.9,154.7 				"/>
				<polygon class="st2" points="133.6,151.6 132.5,152.3 129.2,146.8 130.3,146.1 130,145.6 126.7,147.5 127.1,148.1 128.1,147.4 
					131.4,152.9 130.4,153.5 130.7,154.1 133.9,152.1 133.6,151.6 				"/>
				<polygon class="st2" points="139.9,138.4 140.8,137.5 140.4,137 137.9,139.3 138.4,139.8 139.3,138.9 142.6,142.4 135.5,141.6 
					133.9,143.1 134.3,143.6 135.2,142.8 135.7,142.9 139.8,147.2 138.9,148.1 139.3,148.5 141.7,146.3 141.3,145.8 140.4,146.7 
					137.1,143.1 144.4,143.9 144.8,143.6 139.9,138.4 				"/>
				<path class="st2" d="M148.1,133c-0.5-0.4-1.3-0.2-1.6,0.3c-0.4,0.5-0.2,1.3,0.3,1.6c0.5,0.4,1.3,0.3,1.6-0.3
					C148.8,134.2,148.7,133.4,148.1,133L148.1,133L148.1,133z"/>
				<polygon class="st2" points="50.9,118.6 51.4,119.8 45.5,122.4 45,121.3 44.4,121.5 46,124.9 46.5,124.7 46,123.6 48.6,122.4 
					50.5,126.6 47.9,127.7 47.4,126.6 46.8,126.8 48.3,130.3 48.9,130 48.4,128.9 54.3,126.2 54.8,127.4 55.3,127.1 53.8,123.7 
					53.2,124 53.8,125.1 51.1,126.3 49.2,122.1 51.9,121 52.4,122.1 53,121.8 51.4,118.4 50.9,118.6 				"/>
				<path class="st2" d="M41.3,106.3l0.5,3.3l0.7-0.1l-0.2-1.2l4.1-0.6c1.3-0.2,2.4,0.5,2.6,1.8c0.2,1.2-0.6,2.1-1.9,2.4l-4.1,0.7
					l-0.2-1.2l-0.7,0.1l0.6,3.7l0.7-0.1l-0.2-1.2l4.5-0.7c1.5-0.2,2.5-1.7,2.2-3.5c-0.3-1.9-1.7-3-3.5-2.7l-4.1,0.7l-0.2-1.2
					L41.3,106.3L41.3,106.3z"/>
				<polygon class="st2" points="49.4,90.2 49.2,91.4 42.9,90.6 43,89.4 42.4,89.3 42.1,91.9 47.3,95.2 41.4,97.1 41.1,99.6 
					41.8,99.7 41.9,98.5 48.3,99.2 48.1,100.5 48.7,100.5 49.1,97.2 48.5,97.2 48.4,98.4 43.2,97.8 49.4,95.7 43.6,92 49.1,92.7 
					48.9,93.9 49.5,94 50,90.2 49.4,90.2 				"/>
				<path class="st2" d="M52.9,81.4c0.6-1.5,0.2-2.6-1-3c-1.2-0.4-2.2,0.1-2.8,1.6c0.4-1.1,0.1-2.2-0.8-2.6
					c-1.1-0.4-2.1,0.2-2.6,1.5l-1.5,3.8l0.6,0.2l0.4-1.2l6,2.3l-0.4,1.2l0.6,0.2L52.9,81.4L52.9,81.4L52.9,81.4z M48.9,81.8l0.4-1.1
					c0.4-1,1.1-1.3,2-1c0.9,0.3,1.1,1,0.7,2.1l-0.4,1.1L48.9,81.8L48.9,81.8z M45.7,80.6l0.4-1.1c0.3-0.8,0.9-1,1.7-0.7
					c0.8,0.3,1.1,1,0.8,1.8l-0.4,1L45.7,80.6L45.7,80.6z"/>
				<path class="st2" d="M58.3,72c1.2-1.7,0.7-4.3-1.1-5.5c-1.8-1.2-4.3-0.8-5.5,0.9c-1.2,1.7-0.7,4.3,1,5.5
					C54.5,74.2,57,73.7,58.3,72L58.3,72L58.3,72z M52.2,67.8c0.8-1.1,2.7-1.2,4.2-0.2c1.5,1.1,2.1,2.8,1.3,4
					c-0.8,1.1-2.7,1.2-4.2,0.1C52,70.7,51.4,68.9,52.2,67.8L52.2,67.8L52.2,67.8z"/>
				<polygon class="st2" points="66.5,59.8 66.1,60.3 66.8,61 64.8,62.9 60.4,58.4 61.3,57.5 60.8,57 58.1,59.6 58.6,60.1 
					59.5,59.2 63.9,63.8 63,64.7 63.5,65.1 67.7,61 66.5,59.8 				"/>
				<path class="st2" d="M70.5,58.8l3.3-2.1c1.9-1.2,2.5-3.5,1.4-5.4c-1.1-1.8-3.5-2.3-5.4-1.1l-3.3,2.1l0.3,0.5l1.1-0.7l3.4,5.5
					l-1.1,0.7L70.5,58.8L70.5,58.8z M72.2,56.9l-3.4-5.4l1.1-0.7c1.3-0.8,3-0.3,4,1.3c1,1.5,0.7,3.3-0.6,4.1L72.2,56.9L72.2,56.9z"
					/>
				<polygon class="st2" points="85.7,50.6 84.4,51.1 82.3,45 84.6,44.2 84.9,45.1 85.5,44.9 84.8,43.1 84.3,43.3 84.4,43.6 
					78.6,45.6 78.5,45.3 77.9,45.5 78.5,47.3 79.1,47.1 78.8,46.2 81.1,45.4 83.2,51.5 81.8,52 82,52.5 85.9,51.2 85.7,50.6 				"/>
				<polygon class="st2" points="93.4,44.9 90.3,45.5 90.5,46.7 93.6,46.2 93.4,44.9 				"/>
				<path class="st2" d="M106.6,41.3l-3.3-0.1l0,0.7l1.2,0l-0.1,4.2c0,1.3-0.9,2.3-2.2,2.3c-1.2,0-2-1-2-2.3l0.1-4.2l1.3,0l0-0.7
					l-3.8-0.1l0,0.7l1.3,0L99,46.3c0,1.6,1.2,2.7,3,2.8c1.9,0,3.2-1.2,3.2-3l0.1-4.2l1.2,0L106.6,41.3L106.6,41.3z"/>
				<polygon class="st2" points="120.2,44.7 121.4,45 121.5,44.3 118.3,43.5 118.2,44.1 119.4,44.4 118.1,49 115,42.6 113,42 
					112.8,42.7 113.9,43 114.1,43.5 112.6,49.2 111.4,48.9 111.2,49.5 114.4,50.4 114.6,49.8 113.4,49.5 114.7,44.7 117.8,51.4 
					118.3,51.6 120.2,44.7 				"/>
				<polygon class="st2" points="127.6,55 126.5,54.4 129.5,48.7 130.6,49.3 130.9,48.7 127.6,47 127.2,47.5 128.3,48.1 125.3,53.8 
					124.2,53.2 124,53.7 127.3,55.5 127.6,55 				"/>
				<polygon class="st2" points="139.9,55.6 140.5,56 140.9,55.5 139,54.1 138.6,54.6 139.3,55.2 134.6,58 136,52.6 136.8,53.2 
					137.2,52.7 134.6,50.8 134.2,51.3 134.9,51.8 132.9,59.3 133.2,59.6 139.9,55.6 				"/>
				<polygon class="st2" points="144.2,67.8 143.8,67.3 143.1,67.9 141.3,65.8 143.4,63.8 144.8,65.4 144.2,66 144.6,66.4 
					146.3,64.9 145.9,64.5 145.3,65 143.9,63.4 146,61.5 147.8,63.6 147.1,64.1 147.5,64.6 148.9,63.4 148.5,62.9 148.3,63.1 
					144.8,59.2 144.3,59.7 145.2,60.6 140.4,64.9 139.5,64 139.1,64.4 143.1,68.8 144.2,67.8 				"/>
				<path class="st2" d="M151.5,83.6c-0.1,0.7-0.1,1.4,0.1,2c0.4,1.3,1.6,2,2.8,1.6c1-0.3,1.4-0.9,1.7-2.5c0.1-0.4,0.2-0.8,0.3-1.3
					c0.1-0.6,0.3-0.9,0.7-1c0.6-0.2,1.2,0.1,1.5,0.9c0.1,0.4,0.2,0.7,0,1.5l-0.8,0.3l0.2,0.6l1.9-0.6l-0.2-0.6l-0.4,0.1
					c0.1-0.5,0.1-1-0.1-1.6c-0.4-1.3-1.6-2-2.8-1.6c-0.9,0.3-1.3,1-1.6,2.6c-0.2,1.5-0.5,2.1-1.1,2.3c-0.6,0.2-1.2-0.2-1.5-1
					c-0.2-0.5-0.2-1,0-1.8l0.8-0.3l-0.2-0.6l-2,0.6l0.2,0.6L151.5,83.6L151.5,83.6L151.5,83.6z"/>
				<polygon class="st2" points="154.6,96 154.4,94.7 160.8,93.9 161,95.1 161.6,95 161.1,91.3 160.4,91.4 160.6,92.6 154.3,93.5 
					154.1,92.3 153.5,92.3 154,96.1 154.6,96 				"/>
				<polygon class="st2" points="154.8,105.7 154.8,104.2 161.2,104.5 161.1,106.9 160.2,106.9 160.2,107.5 162.1,107.5 
					162.1,106.9 161.8,106.9 162,100.8 162.3,100.8 162.3,100.2 160.4,100.2 160.4,100.8 161.3,100.8 161.2,103.2 154.9,103 
					154.9,101.6 154.3,101.6 154.1,105.6 154.8,105.7 				"/>
				<path class="st2" d="M152.3,118.1l0.2-0.7l7.8-1.2l0.1-0.4l-6.3-4.9l0.2-0.6l-0.6-0.1l-0.6,2.3l0.6,0.1l0.2-0.9l1.6,1.2
					l-0.7,2.9l-1.9,0.3l0.2-0.7l-0.6-0.1l-0.7,2.7L152.3,118.1L152.3,118.1z M161.6,118.8c0.5,0.1,1-0.2,1.1-0.6
					c0.1-0.5-0.2-1-0.7-1.1c-0.5-0.1-0.9,0.2-1.1,0.7C160.9,118.2,161.1,118.6,161.6,118.8L161.6,118.8L161.6,118.8z M162.3,115.9
					c0.5,0.1,1-0.2,1.1-0.6c0.1-0.5-0.2-1-0.7-1.1c-0.5-0.1-0.9,0.2-1.1,0.7C161.6,115.3,161.9,115.8,162.3,115.9L162.3,115.9
					L162.3,115.9z M156.1,113.3l2.5,1.9l-3.1,0.5L156.1,113.3L156.1,113.3z"/>
				<polygon class="st2" points="148.9,126.1 149.5,124.8 155.3,127.5 154.3,129.7 153.4,129.4 153.2,129.9 154.9,130.7 
					155.2,130.2 154.9,130 157.4,124.5 157.7,124.6 158,124.1 156.2,123.3 156,123.8 156.8,124.2 155.8,126.4 150,123.7 
					150.6,122.4 150.1,122.2 148.3,125.9 148.9,126.1 				"/>
			</g>
			<path class="st2" d="M150.1,79.1l-0.2-0.4c-0.2-0.3-0.2-0.7,0.1-1.1l1.2-2.5c0.7,0.9,1.8,1.1,2.7,0.5c1.2-0.7,1.4-1.8,0.6-3.2
				l-1.9-3.4l-0.6,0.3l0.6,1.1l-5.6,3.1l-0.6-1.1l-0.5,0.3l1.8,3.3l0.5-0.3l-0.6-1.1l2.4-1.3l0.4,0.7l-1.5,2.9
				c-0.3,0.7-0.3,0.8,0,1.5l0.6,1.1L150.1,79.1L150.1,79.1z M153.2,71.6l0.6,1c0.4,0.8,0.2,1.4-0.6,1.9c-0.8,0.4-1.6,0.3-2-0.4
				l-0.6-1L153.2,71.6L153.2,71.6z"/>
		</g>
		<g>
			<path class="st2" d="M114.9,76.8c-0.1,0-1.5-0.7-1.8-0.7c-0.1,0-0.8-0.5-1.4-0.9c-0.6-0.4-0.9-0.6-1-0.7c-0.1,0-0.8-0.4-1.1-0.5
				L108,73l-1.7-1.2c0,0-0.3-0.3-0.7-0.3c0,0-1-0.4-2.3-0.2c-0.8,0.1-2.8,0.4-2.8,0.4c-0.1,0-2,0.4-2.1,0.5c0,0-1.6,1-2.1,1.3l0,0
				l-0.2,1.1l0.1-0.1c0,0,1.4-1.3,2.6-1.7c0,0,2.7-0.6,4.6-0.6c0,0,1.9,0,3.3,1.1l1.2,1l1.8,1c0,0,1.4,1.1,4.4,2.3
				c0,0,1.6,0.6,2.5,1.5l0.1,0.1l0-0.1C117.1,78,115,76.9,114.9,76.8z"/>
			<path class="st2" d="M122.5,85.6l-0.3-1.8l-0.2-1.1l-0.4-1.2c-0.4-1.5-1.1-2.6-1.9-3.6c0,0-0.3-0.7-1.4-1.7
				c-0.1-0.1-0.2-0.2-0.3-0.3c-0.4-0.4-1-1-1.8-1.4c-0.2-0.1-1.9-1.2-2-1.2c0,0-0.1-0.1-0.3-0.1c-0.4-0.1-0.9-0.3-1-0.4
				c-0.4-0.1-0.8-0.2-1.1-0.2l0.2-0.1l-0.5,0l0,0c0,0-0.1,0.1-0.1,0.1c0,0.1,0.1,0.2,0.9,0.4c0.2,0.1,1.8,0.6,1.8,0.7
				c0,0,2,1.2,2.3,1.4c0,0,1.6,1.2,2.6,2.7c0,0,1.3,1.7,2.1,4.7l0.9,2.6l1,1.8L122.5,85.6z"/>
			<path class="st2" d="M125.3,93.2c-0.1-0.7-0.2-1.6-0.3-2.1c-0.1-0.8-0.6-2.1-1-2.8c-0.4-0.6-1.2-1.2-1.3-1.3l-0.2-0.1l0.7,1.6
				c0,0,0.8,1.7,1.3,5.7l-0.3,3.6l-0.4,1.3c-0.1,1.2-0.1,1.2-0.1,1.2l0,0l0,0c0,0,0.8-0.8,1-1.7c0-0.1,0.3-1.5,0.3-1.8
				c0,0,0.3-2.1,0.2-2.8C125.4,93.9,125.4,93.6,125.3,93.2z"/>
			<path class="st2" d="M131.3,112.6c-0.7-0.6-0.5-1.2-0.5-1.2l0.2-2.6c0-1.3-0.5-2.3-0.5-2.3c-0.2-0.6-1.1-1-1.2-1.1
				c-0.6-0.1-1.3-0.1-1.6-0.1c-0.1,0-0.1,0-0.1,0c-1.5,0.1-1.9,0.3-2.1,0.4c-0.1,0-0.1,0.1-0.2,0c0,0,0-0.1,0.1-0.2
				c0.1-0.2,0.2-0.6,0.1-1.1c-0.3-0.8-0.3-1.7-0.3-1.9l1.1-1.6c1.6-2.8,1.3-6.2,1.3-6.2c-0.4-5.8-1.5-9-1.5-9
				c-1.6-5.2-4.1-9.9-4.1-9.9c-3.2-5.1-10-6.1-10.1-6.1c-3.3-0.7-9.1-0.4-9.2-0.4c-3,0.2-4.7,1-4.7,1c0,0-2.7,1.1-3.8,2.8
				c0,0-0.2,0.4-0.3,0.7c-0.2,0.2-1.1,0.7-2.4-0.1c-1.1-0.5-1.3-2.7-1.3-2.7c0,0-0.3-0.8-1.1-0.8c-2.7-0.4-4.3,0.6-4.3,0.6
				c-0.1,0-1.4,1.1-1.9,2.2c-0.3,0-1.7,0.3-3.3,2.7l-1.3,1.6l-1.8,1.6l0,0c0,0.1-0.7,1.5-0.3,4.2c0.1,0.2,0.6,0.6,1.6,1.2
				c0,0,0,0,0,0c0.2,0.3,0.2,3.1-0.3,3.8c0,0.1-0.5,1.3-0.6,1.5l-0.6,1c-0.1,0.1-0.4,0.4-0.4,1.4l0,0.8c0,0-0.1,1.2-0.5,1.7
				l-1.3,1.8L73,98.2c0,0-0.8,1.4-1,1.7c0,0.1-0.1,0.1-0.2,0.2c-0.3,0.4-0.8,0.9-0.9,1.6c0,0,0,0.9,0.6,1.5c0.3,0.3,0.8,0.5,1.4,0.5
				c0,0,0.1,0,0.1,0l0.6,0c0,0,0,0,0,0c0,0.1,0,0.3,0,0.5l0.1,0.5l-0.1,1.1c0,0-0.2,0.9,0,1.3c0,0,0.3,0.3,0.2,0.5l-0.1,0.5
				l-0.1,0.3c0,0.1-0.2,0.9,0.2,1.1l0.5,0.3c0,0,0.6,0.5,0.3,1.1l-0.5,0.8c0,0-0.4,0.5-0.5,1.2c0,0-0.3,1.5,0.5,2.8
				c0.6,0.9,1.6,1.5,3,1.7l2.7,0.3l2.9,0.5c0,0,0.8,0.2,0.8,1.3l0,0.4c0,0,0.1,0.8,0.4,1.4l0.6,1.4l0.7,1.3l0.7,1.7
				c0,0,0.6,1.5,0.6,3.4l-0.1,3.5l0,0.1l1,0h0.1l0-4.8c0,0-0.2-1.9-1-3.3l-0.6-1.2l-0.9-1.5c0,0-0.6-1.2-0.8-2.9l0-0.9
				c0.3-0.1,1.9-0.6,3.4-1.3c0.2-0.1,2.7-1.7,3.7-2.5c2-1.7,2.5-2.1,2.7-2.3c0,0,0,0,0,0l0,0c0.2-0.2,1.6-1.4,2.1-2.2l0.4,0
				c0,0,0,0,0,0c0.1,0,0.2,0,0.3,0.1c0.4,0.3,0.4,1.4,0.4,1.4l1.9,8.5l-2.4,3.6l-2.6,6.1l-2.1,7.4l0,0.1h1.4V137
				c0.1-6,4.7-14.3,4.7-14.4l4.4-6l4.9-5.4l4.3-4.5c0.1-0.1,3.5-2.4,3.9-2.7c0.1-0.1,0.2-0.1,0.3,0c0.3,0.1,0.4,0.6,0.4,0.6
				c0.4,0.8,0.6,1.6,0.6,1.6c0.4,1.3,0.3,1.7,0.2,1.9c-0.1,0.1-0.2,0.1-0.2,0.1l0,0l0,0c-1.5,0.2-2.2,1.3-2.2,1.3
				c-0.8,1.3-0.6,2.8-0.5,3.3c0,0,0,0.1,0,0.1c-0.1,0-0.2,0-0.2,0c-1.8,0-2.3,1.4-2.3,1.4c-1.2,2.3-0.3,4.7-0.3,4.7
				c0,0,0.3,1.5,0.2,2.6c0,0.2-0.1,1.7,0.6,2.1c0.5,0.4,0.9,0.5,1,0.5c0.1,0.1,0.4,0.7,0.9,0.8c0.1,0,0.1,0,0.1,0
				c0.6,0,1.1-0.4,1.6-1.2c0,0,0-0.1,0-0.1c0.1-0.1,1.2-1.1,1.2-1.1c0,0,0.6-0.4,1.5-0.2c0.1,0,1.1-0.1,1.3-0.1
				c0.9-0.1,1.4-0.7,1.6-1.1c0.1,0.7,0.4,2.8,2,3.3c-0.1,0.3-0.1,0.7-0.1,0.7c-0.4,1.6,0.8,2.5,0.8,2.5c2.6,1.6,5.2,0.1,5.2,0.1
				c1.6-0.9,1.7-3.1,1.7-3.1c0.2-1.7,0-2.8,0-2.8l0,0c-1.4-2.2,0-3.8,0-3.8c0.5-0.4,0.8-1.3,1-2.6l0,0
				C132.4,113.4,131.4,112.6,131.3,112.6z M129.9,121.8c0.6,1,0.3,3.1,0.3,3.1c-0.3,1.8-1.9,2.3-2.5,2.5c-1.3,0.3-2.6,0-3.2-0.8
				c-0.3-0.4-0.4-1-0.3-1.6c0,0,0-0.1,0.1-0.1c0.2-0.5,0.5-1.5,2.7-1.6c0.4,0,1.1,0.6,1.1,1c0,0.2-0.2,0.3-0.5,0.3c0,0-0.1,0-0.1,0
				c-0.2,0-0.3,0-0.3,0c-0.2,0-0.4,0.1-0.5,0.2c-0.1,0.1,0,0.2,0,0.2c0,0,0.2,0.5,1,0.5c0.1,0,0.1,0,0.2,0c0,0,0.1,0,0.1,0
				c0.2,0,0.4,0,0.4,0c0.8-0.2,0.7-1.3,0.7-1.4c0-0.8-0.8-1.2-0.8-1.2l-0.8-0.5l-0.5-0.1l-0.9,0.1c-1.1,0.2-1.6,1-1.8,1.4
				c-1.2-1-1.4-1.8-1.4-1.8l-0.5-1.4c0.1-0.2,0.2-0.4,0.4-0.7l0.4,0.1c0,0,1.1,0.3,2.2,0.3c0.1,0,0.3,0,0.4,0c0.1,0,1.3-0.1,1.3-0.1
				l0.8,0c0,0,1.2,0.3,1.7,0.8l0.3,0.4C129.8,121.6,129.9,121.7,129.9,121.8z M112.5,119.6L112.5,119.6c0,0,0-0.3,0.2-0.5
				c0.2-0.2,0.6-0.4,1.1-0.4c0,0,0.7,0,0.9,0.6l0,0c0,0,0.4,0.4,0.4,0.8c-0.2,0-1,0.1-1.6,0.6c-0.5,0.3-0.8,0.8-0.9,1.1
				c-0.2-0.7-0.2-1.4-0.2-1.9L112.5,119.6z M114,121.2c0.5-0.3,1.1-0.4,1.6-0.2l0.8,0.7c0,0.3-0.1,0.9-0.8,1.2l0,0
				c-0.5,0.6-1,1-1.4,1c0,0,0,0,0,0c-0.4,0-0.5-0.3-0.5-0.3l0,0c-0.2-0.1-0.4-0.3-0.5-0.5C113.1,122.7,113.2,121.7,114,121.2z
				 M116.9,121.3l-0.6-0.4c0,0-0.1-0.1-0.2-0.3l-0.6-1.4l0,0c0,0-0.8-1-1.4-1.1c0,0-0.1,0-0.1,0c-0.3,0-0.5,0-0.6,0c0,0,0,0-0.1,0
				c-0.1,0-0.6,0.2-0.8,0.3l-0.5,0c-0.4-1-0.1-2.1,0.2-2.6c0.1-0.1,0.3-0.3,0.5-0.3c0.3-0.1,0.7,0,1.1,0.3l1.1,1.1l0.7,0.9
				c0.1,0.2,1.1,1.7,1.4,1.9c0,0,0,0,0,0c0,0,0.1,0,0.1,0c0,0,0.1,0,0.1,0c0.2-0.2-0.2-0.9-0.4-1.3c-0.1-0.1-0.2-0.3-0.3-0.5
				c-0.4-0.7-0.9-1.6-1.5-2.1c-0.1-0.1-0.1-0.1-0.2-0.2c-0.6-0.6-1.1-1-1.9-1.2c0.6-0.7,1.5-0.8,1.9-0.9l0,0l0.5,0.3l0.4,0.3
				l0.5,0.6l0.4,0.5l0.4,1.1l0.2,0.8l0.4,0.7l0.8,1.1l0,0c0.2,0.2,0.5,0.2,0.8,0.2c0.1,0,0.2,0,0.3,0c0.5-0.1,0.9-0.6,1.1-1
				c0.8-1.7-1.7-5.4-1.9-5.7c-0.2-1.6,1-3.3,1.3-3.7c0.6,0,1.1,0,1.5-0.1l0,0.2l-0.2,1.1c-0.1,0.2-0.2,0.7-0.4,0.8
				c0,0-0.6,0.8-0.7,1.7c0,0.1,0,0.7,0.1,0.9c0.6,0.7,1.5,1.9,1.5,2l0,0c0.3,2.2,0.1,2.7-0.5,3.8c-0.1,0.3-0.3,0.6-0.5,1l-0.6,0.6
				c-0.5,0.7-1.8,0.7-1.9,0.7l-1.3-0.1C117.1,121.5,117,121.4,116.9,121.3z M115.1,111.9c0-0.8,0.5-1.8,0.5-1.9c0.8-0.9,1.5-1,1.5-1
				c0.4,0,0.6-0.1,0.8-0.3c0.4,0,0.7,0,1,0c-0.3,0.4-2.2,3-0.8,4.8c1,1.3,2,3.2,1.9,3.9c0,0.1-0.1,0.2-0.2,0.3l0,0
				c-0.3,0.4-0.6,0.5-0.9,0.5c-0.4-0.1-0.5-0.6-0.5-0.7l-0.5-1l-0.3-1.1c-0.1-0.3-0.7-1.1-0.7-1.1l-0.3-0.4l-0.3-0.3l-0.4-0.5
				l-0.4-0.3l-0.2-0.2c0,0,0,0-0.1,0C115.1,112.4,115.1,112.1,115.1,111.9z M74.7,107.7c0.1-0.1,0.3-0.3,0.6-0.2
				c0.1,0.1,0.5,0.4,0.7,0.4c0,0,0.3,0,0.9,0c0.2,0,0.3-0.1,0.3-0.1c0.1-0.1,0-0.3,0-0.4c0-0.1-0.1-0.1-0.2-0.1h0
				c-0.2,0-0.7,0-0.7,0l0,0l0,0c0,0,0,0-0.1,0c-0.1,0-0.3-0.1-0.5-0.5c-0.1-0.1-0.2-0.2-0.4-0.2c-0.1,0-0.2,0-0.4-0.1l-0.2,0
				c-0.1,0-0.2,0-0.2-0.1c-0.1-0.1,0-0.3,0-0.3l0.1-0.5c0-0.1,0.3-1.3,0-1.9c0,0,0.1,0,0.1,0.1l0.8,0.1l1,0.4c0,0,0.6,0.2,1.6-0.5
				l0,0l0,0c-0.1-0.9-0.9-2.1-0.9-2.1l0-0.1l-0.2,0.4l0,0c0,0,0.2,0.6,0.3,0.7c0.2,0.5,0.2,0.7,0.2,0.8c0,0.1-0.1,0.1-0.2,0.1l0,0
				c-0.3,0.1-0.9,0.2-1.3-0.3l0,0c0,0-0.6-0.4-1.5-0.5c0,0-1.1,0.1-1.4,0.1c-0.5,0-0.9-0.1-1-0.2c-0.2-0.2-0.2-0.5-0.2-0.8
				c0-0.1,0-0.2,0-0.3c0.1-0.2,0.9-1.7,1.6-2.3l0.4-0.5l1.2-2l0.9-1.2c0,0,1.1-1.1,1.1-2l0.1-1.1l0,0l0,0c0,0-0.1-0.6,0.2-1.3l0.5-1
				l0.5-1.4l0.4-1.4l0.2-1.9l0-0.3c0.2-0.3,0.7-1.1,0.8-1.7c0.1-0.7,0.8-1.3,1.4-1.6c0.3-0.2,0.7-0.3,0.9-0.4
				c0.2-0.1,0.3-0.1,0.4-0.2l0,0c0,0,0.2-0.2,0.1-0.4c0-0.1-0.2-0.2-0.4-0.3c0,0,0,0,0,0c-0.2,0-0.9,0.4-1.1,0.5
				c-0.5,0.3-1,0.6-1.3,0.9c-0.2,0.2-0.4,0.5-0.6,0.7c-0.1,0.2-0.2,0.4-0.4,0.5l0,0c-0.2,0.2-0.3,0.3-0.5,0.4
				c-0.7-0.3-1.1-0.7-1.1-1c0,0,0-1.1,0-1.5c0-0.4,0-1.2,0.5-1.9c0.1,0.1,0.4,0.2,0.6,0.2c0.1,0,0.1,0,0.2,0c0.9,0,2.2-0.4,2.9-1.2
				c0.5-0.6,1.4-0.7,2-0.6C83,77.6,83,77.7,83,77.8c-0.2,0.2-0.6,1.5-0.4,1.8c0,0.1,0.1,0.2,0.1,0.3c0.2,0.4,0.3,0.8,0.6,0.8
				c0,0,0.1,0,0.1,0c0.1-0.1,0-0.3,0-0.7c-0.1-0.5-0.2-1.1,0-1.5c0.7-1.2,2.1-2.3,3.2-2.8c1.3-0.6,2.3-0.7,2.9-0.4
				c0.5,0.3,1,0.9,1.4,1.3c0.2,0.2,0.4,0.4,0.6,0.6c0.3,0.3,0.8,0.4,1.2,0.4c-0.1,0.3-0.2,0.6-0.3,1c-0.3,0-0.9,0-1.5,0
				c-0.5-0.5-2.2-2-3.3-1.5c-1.2,0.5-2.1,1.2-2.4,1.6c-0.2,0.2-0.5,0.7-0.5,1c0,0.1,0,0.1,0.1,0.1c0,0,0,0,0,0c0.3,0,0.8-0.5,1-0.7
				c0,0,1.4-1.1,2.2-1.1c0,0,0,0,0,0c0.7,0,1.6,0.7,1.9,1c-0.1,0.1-0.2,0.1-0.4,0.2c-0.8,0.5-1.2,0.9-1.4,1.2
				c-0.1,0.1-0.1,0.1-0.2,0.2l0,0c-0.6,0.6-1,0.9-1.3,0.9c0,0,0,0,0,0c-0.3,0-0.9-0.3-1.3-0.5c-0.2-0.1-0.4-0.2-0.6-0.2
				c-0.3-0.1-0.7,0-1.1,0.2c-0.2,0.1-0.5,0.3-0.6,0.6c0,0,0,0.1,0,0.1c0.1,0.1,0.4,0.1,1,0c0.1,0,0.3,0,0.4,0c0.2,0,0.8,0.3,1.2,0.5
				c0.2,0.1,0.5,0.2,0.6,0.3c0.1,0,0.1,0,0.2,0c0.6,0,1.6-0.8,1.7-0.9c0.1-0.1,0.3-0.3,0.4-0.5c0.4-0.5,0.9-1.2,1.7-1.6
				c0.7-0.4,1.3-0.3,1.7-0.2c-0.1,0.3-0.2,0.6-0.3,0.9c0,0.1-0.1,0.2-0.1,0.3c-0.2,0.1-0.4,0.2-0.6,0.5c-1.1,1-2.4,1.7-3.2,2.1
				c0,0-0.1,0-0.1,0c-0.6,0.4-2.3,0-3-0.2c-0.1,0-0.1,0-0.1,0c0,0,0,0.1,0,0.1c0.1,0.2,0.6,0.7,1.4,0.9c0,0,0.3,0.1,0.8,0.1
				c0.7,0,1.8-0.1,2.7-0.8l1.7-1.3c0,0.1,0,0.1,0,0.1c-0.1,0.2-0.8,1.8-0.9,2.1c-0.3,1.5-0.8,2.3-0.8,2.3l-4,6.2
				c-0.5,0.9-0.5,1.7-0.4,2.1c0.1,0.4,0.2,0.6,0.7,0.6c0.2,0,0.5,0,0.7,0c0.2,0,0.4,0,0.6,0c0,0,0,0,0.1,0c0.6,0,0.7,0.5,0.7,0.5
				c0,0.1,0,1.8,0,2c0,0.2,0.1,1.1,0.1,1.1c0,0,0,0.6,0.7,0.9c0.1,0.1,0,0.3-0.1,0.5c-0.1,0.1-0.3,1.2-0.2,1.3c0,0,0,0,0,0.1
				c0,0.1,0.1,0.2,0.3,0.3c0.8,0.3,0.8,0.9,0.8,0.9l0,0c0.1,0.2-0.4,1.2-0.7,1.8c-0.5,0.8-0.3,3.1-0.3,3.2c0.3,1.1,2.4,1.6,2.5,1.6
				c2.1,0.1,3.6,0.3,3.6,0.3l0.6,0c-0.1,0.1-0.1,0.1-0.2,0.2l-3.8,3.2c0,0-4.4,4-7.9,4c-0.1,0-0.1,0-0.2,0c-0.1,0-0.6,0-1.1-0.1
				c-0.6,0-0.9-0.1-1-0.1c0,0-0.1,0-0.2,0c-0.4-0.1-1.5-0.3-2.5-0.3c-2.3,0-3.8-0.9-3.9-2.5c-0.2-1.1,0-1.7,0.1-1.8
				c0.1-0.1,1.1-1.2,1.1-1.7c0,0-0.2-1-0.6-1.3l0,0l0,0c-0.3,0.1-0.5,0-0.6-0.2C74.3,108.8,74.4,108.1,74.7,107.7z M126.8,96.5
				c-0.2,3.4-1.7,4.7-2.1,5c0,0,0,0,0,0c0,0,0,0,0,0c-0.1,0.1-0.2,0.1-0.3,0.2c-0.3,0.3-0.7,0.6-1.2,0.9c-0.1,0-0.2,0.1-0.3,0.1
				c-0.1,0-0.2,0.1-0.3,0.1c-0.3-0.1-0.7-0.3-0.9-0.6c0.2-0.4,0.6-1.3,0.4-1.9c-0.2-0.5-0.5-0.8-0.6-1.1c-0.1-0.1-0.1-0.2-0.2-0.3
				c-0.1-0.1-0.1-0.4-0.1-0.8c-0.1-0.7-0.2-1.5-0.4-1.9c-0.6-0.8-1.7-1.6-2.2-1.9c-0.3-0.1-0.7-0.1-1.1-0.1c-0.2,0-0.5,0-0.6,0
				c0-0.9-0.9-3.3-1.7-4.1c-0.2-0.2-1.3-0.4-1.7-0.3c-0.4,0.1-1.4,0.2-1.7-0.2c0,0-0.1-0.1-0.1-0.1c0-0.1-0.1-0.1-0.1-0.2
				c0-0.1-0.1-0.1-0.1-0.2c0,0,0-0.1,0-0.1c0-0.1-1-3-1.3-3.9c-0.4-0.8-1-1-1.6-1.2c-0.6-0.2-1.5-0.5-1.9-0.8
				c-0.2-0.1-0.3-0.6-0.3-1.1c-0.1-0.7-0.2-1.5-0.7-1.9c-0.8-0.7-3.8-1-3.9-1c-0.1,0-0.3,0-0.5,0c0-0.1,0-0.2,0-0.2l0.1-0.9
				c0.3,0.1,0.7,0.1,1.1,0c0.6-0.1,1.8-0.3,2.7-0.2c0.6,0,1,0.5,1.5,1c0.1,0.1,0.3,0.3,0.4,0.5c0.3,0.3,0.6,0.9,0.9,1.5
				c0.4,0.8,0.9,1.7,1.6,2.3c0.9,0.8,2.3,1.4,3.1,1.8c0.2,0.1,0.4,0.2,0.5,0.2c0.3,0.1,0.3,0.3,0.4,0.8c0.1,0.3,0.1,0.6,0.3,1.1
				c0.5,1.4,1.2,2,1.9,2.4c0.4,0.3,1.3,0.6,2.1,0.9c0.8,0.3,1.7,0.6,2,0.8c0.3,0.2,0.4,0.7,0.5,1.2c0.1,0.4,0.1,0.8,0.3,1.1
				c0.3,0.4,1,1,1.6,1.5c0.4,0.3,0.7,0.6,0.9,0.8c0.3,0.3,0.5,0.8,0.6,1.1c0.1,0.3,0.1,0.4,0.2,0.4c0,0,0,0,0,0c0,0,0.1,0,0.1,0
				c0.2-0.2,0.1-0.8-0.1-1.6c-0.1-0.3-0.5-0.7-1.1-1.2c-0.1-0.1-0.2-0.2-0.3-0.3c0.3-0.3,0.6-0.8,0.6-1.4c0.1-1-0.3-2.4-0.8-3.1
				c-0.5-0.7-1.1-1.5-2.1-1.8c-0.2-0.1-0.4-0.1-0.5-0.2c-0.4-0.1-0.5-0.2-0.9-0.5c-0.5-0.5-1-2.8-1.1-4.5c-0.1-1.2-0.6-1.7-1.4-2
				c-0.4-0.2-1.2-0.4-2.1-0.6c-0.7-0.2-1.4-0.4-2-0.6c-0.8-0.3-2.4-1.4-3.6-2.2c-0.6-0.4-1.1-0.8-1.4-0.9c-0.9-0.5-4.7-1.2-5.5-0.9
				c-0.4,0.2-0.6,0.4-0.7,0.7c-0.1-0.2-0.3-0.3-0.3-0.3c-0.3-0.2-1-0.5-1.1-0.5c-0.1,0-0.1,0-0.2,0c0.2-0.2,0.5-0.4,0.9-0.6
				c0.6-0.3,1.8-0.5,2.7-0.5c1,0,1.4-0.2,1.4-0.2l0.1,0l-0.1-0.1c0,0-0.3-0.2-1-0.3c-0.4-0.1-1.3,0-2.1,0.1c-0.4,0-0.8,0.1-0.9,0.1
				c-0.5,0-1.9,1.1-2.1,1.2c-0.4-0.1-0.8-0.1-1-0.1c0,0,0,0-0.1,0C96.9,74.9,96,75,96,75c-0.4,0.1-0.8,0.2-0.8,0.3
				c-0.2-0.3-0.3-0.7-0.3-1.1c0-0.4,0.2-0.8,0.4-1l0,0c0.4-0.5,1.4-1.2,1.4-1.2c0.3-0.2,3.2-1.5,6.3-1.6c2.8-0.1,5.4,0,7.9,0.3
				c1.9,0.2,7.1,2.5,7.1,2.5c1.6,0.8,2.8,2.6,2.8,2.6c1,1,3.1,5.9,3.1,5.9c1.3,4.4,1.5,5.1,1.6,5.3l0,0
				C125.6,87.1,126.6,90.6,126.8,96.5z M124.8,105.1c0,0,0,0.1,0,0.1l-0.2,0.6c0,0.1-0.1,0.2-0.1,0.2c0,0,0,0,0,0.1l-0.1,0.3
				c-0.2,0.7-3.3,1.4-4.6,1.6l-0.7,0h-0.6l-0.3,0c0-0.2,0-0.4,0-0.4l-0.1-0.6c0.1-0.1,0.2-0.1,0.2-0.1c1.8,0,3.4-0.7,3.4-0.7
				c0.1,0,1-0.4,1.4-0.6c0.3-0.1,0.7-0.5,0.7-0.8c0-0.1,0-0.1,0-0.1c-0.1,0-0.2,0-0.4,0c-0.8,0.3-3.4,1.2-3.5,1.3l-0.6,0.1h-0.9
				c-0.3,0-0.5-0.5-0.6-0.9c0.1-0.1,0.3-0.3,1.2-0.3c0.1,0,0.3,0,0.4,0l0,0c0,0,2.8-0.5,4.4-1.7c0.1,0,0.4-0.1,0.7,0
				c0,0.2,0.1,0.4,0.1,0.4C124.9,104.6,124.8,105.1,124.8,105.1L124.8,105.1L124.8,105.1z M129.7,118.7L129.7,118.7
				c-0.1,0.5-0.2,0.9-0.2,1.2c-0.3-0.3-0.8-0.6-1.4-0.6c-0.1,0-0.6-0.1-0.9-0.1l-0.9,0c-0.1-0.5-0.4-2.1-1.2-3
				c-0.6-0.6-1-0.9-1.4-1.2c-0.2-0.1-0.4-0.3-0.6-0.5c-0.6-0.5-1.6-1.3-1.6-1.3c-0.5-0.6-0.5-1,0.1-2.1c0.3-0.3,0.4-2.2,0.5-2.8
				c0.4-0.1,0.7-0.1,1-0.2c0,0.3,0,1.1,0.2,1.9c0.1,0.6-0.1,1.2-0.2,1.7c-0.1,0.3-0.2,0.6-0.1,0.7c0.1,0.3,1.3,1.4,1.8,1.7
				c0.1,0,0.2,0.1,0.4,0.2c0.6,0.3,1.7,0.8,2.1,1.1c0.3,0.2,0.8,0.7,1.3,1.2c0.3,0.3,0.6,0.7,0.8,0.8c0.2,0.1,0.4,0.5,0.6,0.7
				C129.8,118.5,129.7,118.7,129.7,118.7z M122.7,115.9l0-0.2l0.1,0l1.2,0.9l1,1c0,0,0.5,0.5,0.5,1l0,0.7l-0.2,0l-1.4-0.1h0l0,0
				c0,0-0.1,0.1-0.3,0l0,0c0,0,0,0,0,0c-0.1,0-0.7-0.1-0.9-0.7l0.1-1.1l0.1-0.5l0,0L122.7,115.9z M122.2,92.8
				c-0.1,0.3-0.2,0.6-0.3,0.8c-0.2-0.3-0.4-0.5-0.5-0.7c-0.1-0.2-0.1-0.4-0.2-0.6c-0.2-0.6-0.3-1.3-1.2-2c-0.6-0.4-1.5-0.7-2.3-0.9
				c-0.8-0.2-1.6-0.5-2.1-0.8c-0.4-0.2-0.6-1.1-0.9-2c-0.2-0.6-0.3-1.2-0.5-1.6c-0.4-0.9-1.3-1.1-2.1-1.2c-0.2,0-0.4-0.1-0.5-0.1
				c-0.7-0.2-2.3-1.4-3.3-3.7c-1-2.3-2.1-2.5-2.7-2.6l-0.1,0c-0.4-0.1-1.8,0-2.8,0.1c-0.4,0-0.7,0.1-0.8,0.1c-0.1,0-0.3-0.1-0.5-0.2
				c0.1-0.5,0.4-1.2,1-1.2c1,0,2.7,0,4.5,1.1c0.4,0.3,0.9,0.6,1.5,0.9c1.7,1,3.7,2.3,5.2,2.7l0.1,0c1.8,0.5,2.6,0.7,2.8,1.5
				c0.1,0.3,0.1,0.7,0.2,1.2c0.1,1.1,0.3,2.4,0.8,3.2c0.4,0.5,1.1,1,1.8,1.5c0.8,0.5,1.6,1,2,1.7C122.1,91.1,122.3,92.2,122.2,92.8z
				 M117.1,103.5c-0.1-0.2-0.3-0.6-0.5-1c-0.2-0.3-0.7-0.8-1.5-1.5c-0.1,0-0.5-0.2-1-0.4c0-0.1,0-0.2,0-0.2l-0.1-0.1
				c-0.2-0.2-0.2-0.2-0.1-0.7l0-0.2c0-0.5,0-0.6,0-0.7c0-0.1,0-0.1,0-0.2c0-0.1,0-0.3-0.1-0.5c0.2,0,0.3-0.1,0.6-0.1
				c0.5-0.1,1.2-0.6,1.7-1.3c0.2-0.2,0.4-0.8,0.5-1.4c0.3-0.1,0.8-0.2,1.1-0.1c0.5,0.2,1.7,0.8,1.9,1.2c0.1,0.2,0.3,0.7,0.4,1.1
				c0,0.1,0.1,0.3,0.1,0.4l-2,0.2l-1.3,0.3l-1.4,0.6l0.4,0.4l0,0l0,0c0.1,0,1.4-0.2,1.5-0.2c2-0.6,3.2-0.2,3.3-0.2l0,0
				c0,0,0.1,0,0.1,0.1c0,0.1,0.1,0.2,0.1,0.2c0.3,0.4,0.5,0.8,0.5,1c0,0.2-0.2,0.9-0.6,1.5c-0.2,0.1-0.7,0.3-1.1,0.3l-0.8-0.1
				l-0.6-0.1c-0.1,0-0.3-0.1-0.4-0.1c0,0-0.3-0.1-0.5-0.2c-0.5-0.4-0.6-0.4-0.6-0.4c0,0-0.4-0.1-0.7-0.2l-0.7-0.1l0.4,0.5l0.4,0.2
				l0.4,0.1l0.6,0.5l0.6,0.4l0.3,0.2l0.5,0.2l0.9,0.1l1.1,0c0.4,0.1,0.8,0.2,0.8,0.3l0.1,0.3c-0.1,0-0.1,0-0.2,0.1
				c0,0-1.1,0.7-3.1,0.7c-0.1,0-0.3,0-0.4,0L117.1,103.5C117.1,103.5,117.1,103.5,117.1,103.5z M112.2,100.1c-0.6-0.3-1-0.7-1.2-0.8
				c0,0-0.1-0.1-0.1-0.1c-1-0.8-1.5-0.9-1.5-1c-0.1,0-0.1,0-0.2,0c0,0,0,0,0,0c-0.3-0.3-0.7-0.8-0.6-1.1c0.1-0.4,0.3-0.7,0.5-0.8
				c0.2-0.1,0.9-0.1,1.4-0.1c0,0,0,0,0,0c0.4,0.2,1.2,0.7,1.2,0.7c0.5,0.3,0.8,0.7,1,1.2c0.2,0.7-0.1,1.7-0.2,2
				C112.4,100.1,112.2,100.1,112.2,100.1z M110.1,88.6c-0.5,0.1-1.2,0.2-1.5-0.1c-0.2-0.2-0.5-0.5-0.7-0.8c-0.2-0.3-0.4-0.5-0.5-0.7
				c-0.3-0.3-0.7-0.5-1.1-0.7c-0.1-0.3-0.6-1.1-0.9-1.3c-0.7-0.6-1.2-1-1.6-1.3c-0.2-0.1-0.4-0.3-0.6-0.4c-1.1-0.9-2.3-1.4-2.8-1.5
				c0.2-0.7,0.4-1.2,0.5-1.6c0.3,0.1,0.7,0.1,1.1,0.1c1,0.1,2.2,0.1,3.2,0.9c0.1,0.1,0.2,0.6,0.2,1.1c0.1,0.7,0.2,1.5,0.5,1.6
				c0.3,0.2,0.7,0.3,1.1,0.5c0.8,0.3,1.7,0.7,2.3,1.4C110.1,86.6,110.1,88.1,110.1,88.6z M115.8,94.3c-0.1,0.5-0.3,1.3-0.5,1.7
				c-0.3,0.6-0.7,0.8-1.1,1c-0.2,0.1-0.6,0.1-0.8,0.1c-0.1-0.2-0.4-0.4-0.7-0.5c-0.2-0.1-0.4-0.2-0.5-0.3c-0.2-0.2-0.6-0.4-0.9-0.6
				c0.4-0.3,0.7-0.9,0.8-1.3c0.1-0.7,0.2-1.1,0.1-1.7l0-0.1c0-0.5,0-0.9-0.1-1.2c0.3-0.3,0.9-0.7,1.9-0.6c0.8,0.2,1.5,1.9,1.8,2.8
				C115.8,93.7,115.8,94,115.8,94.3z M102.7,83.7c0.7,0.5,1.5,1.3,1.8,1.6l0.1,0.1c0.1,0.1,0.2,0.2,0.2,0.4
				c-0.6-0.1-1.2-0.2-1.5-0.2c-0.4,0-1.1,0.2-1.6,0.6c-0.1,0-0.1,0.1-0.1,0.1c-0.4-1-1.3-1.9-1.3-2c-0.6-0.6-0.5-0.9-0.5-0.9
				c0.1-0.2,0.2-0.5,0.3-0.7C100.7,82.8,101.9,83,102.7,83.7z M101.6,88.7c0.1-0.5,0.1-1,0.1-1.5c0.3-0.3,0.6-0.7,1-0.7
				c0.7-0.2,1.5,0,2.1,0.1c0.6,0.2,1.6,0.4,2.1,1.1c0.1,0.2,0.3,0.4,0.4,0.6c0.2,0.4,0.5,0.8,0.9,1c0.3,0.1,1,0.3,1.4,0.4
				c0.1,0,0.2,0.1,0.3,0.1c0.4,0.1,0.7,0.3,0.9,0.5c0,0,0,0,0,0c0.1,0.4,0.5,1.6,0.5,2.8c0,0.2-0.1,0.9-0.4,1.6
				c0,0.1-0.1,0.1-0.1,0.2c-0.1,0.2-0.1,0.3-0.2,0.3c0,0-0.1,0-0.2,0c-0.2-0.1-0.3-0.1-0.4-0.2c-0.2-0.1-0.3-0.1-0.5-0.2
				c-0.4-0.1-0.9-0.1-0.9-0.1c0,0-0.9,0.2-1.3-0.3c-0.2-0.2-0.2-0.5-0.3-0.7c-0.1-0.3-0.2-0.6-0.4-0.6c-0.1,0-0.2-0.1-0.2-0.1
				c0,0,0.1-0.1,0.1-0.1c0.3-0.5,0.4-0.7,0.5-1.1c0.1-0.4,0-1.2-0.1-1.5c-0.2-0.6-0.6-1.3-0.7-1.5c-0.2-0.3-1.5-0.8-1.8-0.8
				c0,0,0,0,0,0c-0.1,0-0.1,0.1-0.1,0.1c0,0.2,0.8,0.7,0.9,0.8c0.5,0.3,0.9,1.1,1.1,1.6c0.1,0.4-0.2,1.5-0.3,1.7
				c-0.2,0.1-1.1,0.4-1.6,0.2c-0.3-0.1-0.6-0.2-0.8-0.4c-0.2-0.1-0.4-0.2-0.7-0.4c-0.4-0.2-1.1-1-1.5-1.4
				C101.3,89.3,101.6,88.7,101.6,88.7L101.6,88.7z M102.3,91.8c0.3,0.1,0.5,0.3,0.7,0.6c0,0,0.1,0.1,0.1,0.1
				c0.1,0.7,0.2,1.9,0.3,2.4c0.1,0.3,0.2,0.5,0.3,0.7c0.1,0.3,0.2,0.6,0.2,0.9c-0.1,0.3,0,0.8,0,1.2c-1.2,0-1.3-0.1-1.4-0.1
				c-0.2-0.2-0.6-3-0.8-4.7l-0.3-1.4C101.6,91.5,102,91.7,102.3,91.8z M104.4,96l-0.1-0.2c-0.2-0.6-0.4-1.3-0.4-1.8
				c0-0.4,0-0.9-0.1-1.2c0.2,0.1,0.4,0.2,0.6,0.3c0.2,0.1,0.4,0.3,0.6,0.3c0.1,0,0.2,0.1,0.3,0.1c0,0,0.1,0,0.1,0
				c-0.1,0.2-0.1,0.3-0.2,0.4c-0.1,0.3-0.1,0.8-0.1,1.2c0,0.4,0.1,1.1,0.2,1.4c0.1,0.2,0.2,0.6,0.2,0.9c-0.4,0-0.7,0.1-1.1,0.1
				C104.6,97.2,104.5,96.5,104.4,96z M107.2,98.7L107.2,98.7c-0.2-0.3-0.3-0.7-0.3-0.8c0-0.1,0-0.2-0.1-0.3c0,0,0,0,0,0l-0.1,0
				c0,0-0.6-0.5-0.6-1.1c0-0.3-0.1-0.6-0.1-1c-0.1-0.5-0.2-1-0.1-1.1c0.1-0.1,0.3-0.3,0.5-0.4c0.2,0.2,0.4,0.4,0.5,0.5
				c0,0.1,0.1,0.1,0.1,0.2c0.3,0.4,0.5,0.8,1.1,0.8l0.1,0c0.5,0,0.8,0.1,1.2,0.2c-0.3,0-0.7,0.1-0.8,0.2c-0.3,0.3-0.6,0.7-0.7,1.2
				c0,0.3,0,0.7,0.1,1.1l0,0.1c0,0.1,0.1,0.2,0.2,0.4c-0.2,0.2-0.4,0.3-0.6,0.5C107.3,98.9,107.2,98.7,107.2,98.7z M130,112
				C129.9,112,129.9,112,130,112c-0.1,0-0.1,0-0.2,0l0,0c-2.4,0.5-3.2,0.2-3.4-0.2c-0.2-0.2-0.1-0.5,0-0.7c0.1,0,0.2-0.1,0.7-1.8
				c0.2-0.5-0.3-1.2-0.4-1.3c-0.1-0.2-0.9-1.1-1.2-1.4c0,0,0.1-0.1,0.1-0.1c0,0,0,0,0,0c0.3,0,1.1-0.2,1.1-0.2
				c1.7-0.2,3.2-0.2,3.6,2.1C130.3,108.7,129.8,110.4,130,112z M94,75.2l-0.8,1.3c0,0-0.1,0.2-0.2,0.4c-0.1,0-0.3,0-0.5-0.1
				c-0.3-0.1-1.1-0.9-1.7-1.5c-0.1-0.1-0.1-0.1-0.2-0.2c0.1-0.1,0.3-0.1,0.5-0.2c0.1,0,0.1,0,0.2,0c0.4,0.3,1.1,0.5,2,0.3
				c0,0,0.6-0.1,0.9-0.1C94.1,75.1,94,75.2,94,75.2z M90.5,74.1c-0.2,0.1-0.4,0.2-0.6,0.3c0,0-0.1-0.1-0.1-0.1
				c-0.8-0.6-1.9-0.4-2.5-0.2c-0.2,0.1-0.5,0.2-0.8,0.5c-0.1,0-0.3,0-0.4-0.2L86,74.3c-0.4-0.4-0.8-0.8-0.9-0.9
				C84.7,73.2,84.3,73,84,73l0.1-0.2l0.3-0.4c0,0,0.5-0.7,0.9-1l0.1,0c0.3-0.2,0.7-0.3,1-0.3c0,0,0,0,0,0l1.8,0.1c0,0,1.2,0,1.4,1
				l0.6,1.7C90.3,73.8,90.4,73.9,90.5,74.1C90.5,74.1,90.5,74.1,90.5,74.1z M83.5,73.7c0.4,0,0.8,0.2,1.3,0.5c0.3,0.2,0.7,0.7,1,0.9
				c-0.7,0.5-1.3,1-1.5,1.2c-0.1,0.1-0.3,0.3-0.5,0.5c-1.8-0.3-2.8,0.5-3.1,0.8c-0.9,1-2,1-2.6,0.7c0.3-0.3,0.8-0.6,1-0.8
				c0.5-0.4,0.9-1,1.4-1.7c0.5-0.7,2.1-1.8,2.2-1.8L83.5,73.7z M92.5,109c-0.1,0-0.2,0-0.3,0c-1.5,0-2.4-0.4-2.9-1.1
				c-0.7-1.1,0-2.7,0-2.8l0.5-1.1c0.1-0.2,0.2-0.2,0.4-0.1c0.1,0,0.1,0,0.2,0c0,0,0,0,0.1,0c0.2,0,0.3,0,0.4-0.2
				c0.1-0.2-0.2-0.6-0.2-0.6c-0.2-0.2-0.4-0.5-0.4-0.9c0-0.2,0.1-0.4,0.3-0.6l0,0l0,0c0,0,0-0.1,0-0.1c-0.1-0.1-0.3-0.1-0.3,0l0,0
				c-0.6,0.4-0.9,0.1-0.9,0.1c-0.1-0.2-0.2-0.3-0.1-0.5c0.1-0.2,0.3-0.4,0.3-0.4l0,0c0,0,0.3-0.3,1.5,0c0.3,0.1,1,0,1,0
				c0.5-0.1,0.5-0.5,0.5-0.5v0l0,0c-0.3-0.2-0.4-0.3-0.5-0.4c-0.1-0.1-0.1-0.1-0.3-0.2c-0.1,0-0.1,0-0.2,0.1c-0.2,0.2-0.4,0.5-1.1,0
				C89.7,99,89.6,99,89.5,99c-0.1,0-0.2,0-0.3,0c-0.3,0-0.4,0-0.5-0.5l-0.1-2.4l0-0.7l1,0.1c0.5,0.2,0.9,0.2,1,0.2l0,0
				c0.1,0,0.4-0.1,0.6-0.3c0.2-0.2,0.4-0.5,0.1-1.1l-0.1-0.1l-0.1,0.1c-0.3,0.6-1.5,0.5-1.7,0.5c-1.1-0.8-2.5-0.4-2.5-0.4
				c-0.5,0.1-0.9,0-1-0.2c-0.3-0.4,0.1-1,0.1-1l1.8-2.8c0,0,2-2.7,3-4.5l0,0c0.2-1.8,0.5-2.5,0.6-2.6c0.7-0.8,1-1.5,1-1.7
				c1-3.4,1.2-4.1,1.2-4.1c0.1-0.5,0.8-1.7,1.6-1.8c0.1,0,0.2,0,0.3,0c0.5-0.1,1.3-0.2,1.6-0.1c0.1,0,0.2,0,0.3,0
				c0.5,0.1,1.3,0.2,2.5,0.7c1.2,0.3,0.4,3.3,0.4,3.3l-1.7,3.7c-0.2,0.3,0.5,0.9,0.5,0.9c0.1,0.1,1,1.2,1,1.3c0,0,0.8,0.7,0.7,2.1
				c0.1,0.9-0.1,1.2-0.3,1.6c-0.1,0.2-0.2,0.3-0.3,0.5l0,0c0,0.8,0.3,2.2,0.4,2.3c0,0,0,0,0,0.1c-0.4,0.3-1,0.7-2.1,1.1
				c-0.2,0.1-0.5,0.2-0.8,0.3c-1.4,0.5-1.9,0.7-1.9,0.9c0,0,0,0.1,0,0.1c0.1,0.1,0.3,0.1,0.6,0.1c0.3,0,0.6,0,0.7-0.1
				c0.4-0.1,1.4-0.4,1.8-0.6c0.3-0.1,1.3-0.5,1.8-0.8c0.1,0.4,0.2,0.8,0.2,1.1c-0.2,0.1-0.4,0.2-0.6,0.3c-0.3,0.2-0.8,0.4-1.2,0.6
				c-0.2,0.1-0.3,0.2-0.4,0.2c-0.2,0.1-0.9,0.5-0.9,0.6c0,0,0,0.1,0,0.1c0.1,0.1,0.4,0.2,0.5,0.2c0,0,0,0,0,0c0.1,0,0.6-0.2,1.2-0.5
				c0.2-0.1,0.4-0.2,0.5-0.2c0.3-0.1,0.7-0.3,0.9-0.4c0,0,0,0.1,0,0.1c0.2,2.3,0.3,2.7,0.3,2.8c0.2,0.2,1.5,0.2,4,0
				c1.1,0.5,1.3,1.3,1.3,1.7l-0.2,0.7c-0.4,0.9-1.9,5-1.9,5c0,0.1-0.1,0.2-0.1,0.3c-0.2,0.5-0.5,1.2-1.7,1.4c-1.2,0.5-2,0.7-3.4,0.9
				c-2.4,0.5-4.1,0.6-4.2,0.6L92.5,109z M98.1,109.8c0-0.1,0-0.1,0-0.2c0-0.1,0.6-0.3,1.1-0.3c5.2-0.9,6-2.3,6.3-2.8
				c0-0.1,0.1-0.1,0.1-0.1c0.9-1.6,2.5-6.2,2.6-6.4c0.1-0.1,0.6-0.6,1-0.8c0.5-0.2,1,0.4,1.1,0.4l0,0c0.2,0.1,1.3,1,1.3,1
				c0.4,0.3,1.3,0.5,1.3,0.5c0.3,0.1,1.1,0.4,1.5,0.5c0.2,0.1,0.3,0.1,0.4,0.1c0.1,0,0.8,0.5,0.8,0.6c0,0.1,0.1,0.1,0.1,0.2
				c0,0.1,0.1,0.3,0.1,0.4l-0.3,0.3l-4.4,3.2c-3.5,2.7-8.1,8.5-8.1,8.6l-2.6,3.2l-0.3,0.5l-0.3-1.8l-1.1-5
				C98.3,110.4,98.2,110,98.1,109.8z M130.5,117.3c-0.3-0.2-0.6-0.5-1-1c-0.9-0.9-1.8-1.6-2.8-2.1c-0.1-0.1-0.2-0.1-0.3-0.2
				c-1-0.5-1.9-1-2.2-1.7c-0.1-0.4,0-0.6,0.1-0.9c0.2-0.4,0.4-0.8,0.2-1.5c-0.2-0.8-0.4-1.5-0.5-1.9c0.4-0.2,0.6-0.4,0.7-0.4
				c0.1-0.1,0.3-0.2,0.4-0.4c0.1,0.2,0.3,0.5,0.3,0.6l0,0c0,0,0.8,0.7,0.9,1.2c-0.1,0.2-0.8,2.1-0.8,2.1c-0.2,0.7-0.2,1.2,0.1,1.5
				c0.2,0.2,0.4,0.2,0.8,0.2l4.4,0.3c0.8,1.2,0.8,2.2,0.7,2.7c0,0,0,0,0,0c0,0.1,0,0.2-0.6,1C130.8,116.9,130.6,117.1,130.5,117.3z"
				/>
			<path class="st2" d="M79.2,95c0-0.3,0-0.7,0-1c0-0.1,0-0.2,0-0.2c0-0.1,0.1-0.2,0.1-0.2c0.1,0,0.2,0,0.4,0l0.1,0
				c0.2,0,0.3,0,0.5,0c0.2,0,0.6,0.1,0.7,0.1c0.1,0,0.1,0.1,0.2,0.1c0.1,0.1,0.2,0.1,0.3,0.2c0,0,0.1,0,0.2,0.1
				c0.2,0.1,0.6,0.2,0.7,0.3c0.2,0.1,0.5,0.6,0.6,0.7c0.1,0.1,0.2,0.3,0.3,0.4c0.1,0.1,0.3,0.2,0.4,0.2c0.2,0.1,0.4,0,0.4,0l0.1,0
				l-0.1-0.1c-0.1-0.1-0.4-0.6-0.7-1.1c-0.3-0.5-0.5-0.7-0.5-0.8c-0.1-0.1-0.2-0.2-0.4-0.2c-0.1,0-0.2-0.1-0.3-0.1
				c-0.1,0-0.2-0.1-0.3-0.1c-0.1,0-0.2-0.1-0.4-0.2c-0.1-0.1-0.3-0.1-0.4-0.2c-0.1,0-0.1-0.1-0.2-0.1c-0.3-0.1-0.7-0.3-0.9-0.3
				c-0.4,0-1.7,0-1.8,0.1c-0.1,0.1-0.2,0.2-0.2,0.3c0,0.1,0.1,0.2,0.1,0.4c0,0.1,0.1,0.1,0.1,0.2c0,0,0.1,0.2,0.1,0.4
				c0,0.2,0,0.8,0,1.1c0,0.3-0.1,0.4-0.1,0.6l0,0c0,0.1-0.2,0.3-0.3,0.4c-0.2,0.2-0.2,0.3-0.2,0.3l0,0l0,0c0,0,0,0,0.1,0
				c0.2,0,0.8-0.1,0.9-0.2C78.9,96.2,79.1,95.4,79.2,95z"/>
			<path class="st2" d="M82.5,95.8c0,0-0.1-0.1-0.1-0.1c-0.1-0.1-0.2-0.2-0.3-0.3c0,0-0.1-0.1-0.2-0.1c-0.1,0-0.1-0.1-0.1-0.1
				c-0.1,0-0.1-0.1-0.2-0.1l-0.1,0c0,0-0.3-0.2-0.4-0.2l0,0c-0.1,0-0.2-0.1-0.3-0.1c0,0,0,0-0.1-0.1c0,0-0.1-0.1-0.1-0.1
				c-0.1,0-0.6-0.1-0.6-0.1c0,0,0,0,0,0c-0.1,0-0.3,0.2-0.4,0.2c0,0,0,0.1,0,0.2c0,0,0.1,0.2,0.1,0.2c0,0,0.1,0.1,0.2,0.1
				c0,0.1-0.1,0.3-0.1,0.5c0,0.2,0,0.4,0,0.6c0,0.1,0.2,0.4,0.3,0.5c0.1,0.1,0.3,0.2,0.3,0.2c0,0,0,0,0,0c0,0,0.1,0,0.1-0.1
				c0.1-0.1,0.1-0.2,0-0.3c0-0.3-0.1-0.4-0.1-0.5l0-0.1c0-0.1,0.1-0.3,0.2-0.5c0.1,0,0.1,0,0.2,0.1c0.1,0.1,0.5,0.4,0.6,0.5
				c0,0,0.1,0.1,0.1,0.1c0.1,0.1,0.2,0.1,0.2,0.3c-0.1,0.3-0.2,0.4-0.4,0.4c-0.1,0.1-0.4,0.2-0.5,0.2c-0.2,0-0.5,0.1-0.6,0.1
				c-0.1,0-0.4,0-0.4,0l0,0c0,0-0.2,0.1-0.2,0.2c0,0.1,0.1,0.2,0.1,0.2l0.5,0c0,0,0.2,0,0.3,0c0,0,0.1,0,0.2,0c0.1,0,0.3,0,0.3,0
				c0.1,0,0.4-0.1,0.5-0.2c0.2-0.1,0.8-0.4,0.9-0.5c0.1-0.1,0.2-0.2,0.2-0.2c0-0.1,0-0.2,0-0.3C82.8,96.1,82.6,95.8,82.5,95.8z"/>
			<path class="st2" d="M92.7,85.4C92.7,85.4,92.7,85.4,92.7,85.4c0.3,0,1.3,0.2,1.7,0.4c0.4,0.1,0.6,0.2,0.7,0.3
				c0.1,0.1,0.6,0.5,0.9,0.8c0.1,0.1,0.2,0.2,0.3,0.2c0.1,0.1,0.2,0.1,0.2,0.3c0,0,0,0.1,0.2,0.1c0,0,0.1,0,0.2,0
				c0.2,0,0.3-0.1,0.4-0.2c0.1-0.1,0.1-0.2,0-0.2C97.2,87,97.2,87,97.2,87c0,0-0.1,0-0.2-0.3c-0.2-0.2-0.4-0.4-0.6-0.6
				c-0.1-0.1-0.2-0.1-0.2-0.2c-0.4-0.3-0.6-0.5-0.8-0.6c0,0-0.1,0-0.1-0.1c-0.3-0.2-1.2-0.7-2.2-0.7c0,0,0,0,0,0
				c-0.3,0-0.9,0.4-1,0.5l0,0l0.1,0.4l0,0C92.1,85.4,92.5,85.5,92.7,85.4z"/>
			<path class="st2" d="M96.7,89c0.1,0,0.1,0,0.2,0c0.1,0,0.2-0.1,0.2-0.1c0,0,0-0.1,0.2-0.2c0.1,0,0.1-0.1,0-0.1
				c-0.1-0.1-1.2-0.2-1.4-0.1c-0.1,0-0.3,0.1-0.5,0.1c-0.3,0.1-0.6,0.1-0.7,0.2c-0.1,0-0.2,0.1-0.3,0.1c-0.3,0.1-0.5,0.2-0.5,0.4
				c0,0.1,0,0.1,0.1,0.1c0,0,0.1,0,0.2,0c0.2,0,0.5-0.1,0.8-0.2c0.1,0,0.2-0.1,0.2-0.1c0.2-0.1,0.2-0.1,0.4-0.1c0.1,0,0.2,0,0.5-0.1
				C96.5,89,96.6,89,96.7,89z"/>
			<path class="st2" d="M94.2,87c0.3,0.1,0.9,0.5,1,0.7c0,0,0,0,0,0c-0.1,0.1-0.3,0.2-0.6,0.3c-0.5,0.2-0.6,0.3-0.7,0.4l0,0l0,0
				c0,0,0,0,0,0c0,0,0,0,0,0c0.2,0,1.2-0.3,1.4-0.4c0.2-0.1,0.3-0.4,0.4-0.4l0,0l-0.1-0.3l0,0c0-0.1-0.1-0.2-0.2-0.4
				c-0.2-0.2-1.1-0.8-1.4-0.8c0,0-1.6-0.3-1.8-0.1c-0.2,0.1,0,0.6,0,0.6l0,0l0,0c0,0,0,0,0,0c0.1,0,0.3,0,0.5,0c0,0.2,0,0.4,0,0.5
				c0,0,0,0.1,0,0.1c0,0.2,0,0.3,0.2,0.5c0,0,0,0.1,0.1,0.1c0.1,0.1,0.1,0.2,0.3,0.2c0,0,0.1,0,0.1,0c0.2,0,0.2-0.3,0.2-0.5
				c0-0.1,0-0.2,0-0.3c0-0.2,0.1-0.4,0.2-0.5C94,87,94.1,87,94.2,87z"/>
		</g>
	</g>
</g>
<g id="Hilfslinien">
</g>
</svg>
